<?xml version="1.0" encoding="UTF-8" standalone="no"?>
<svg
   version="1.0"
   width="16"
   height="16"
   viewBox="0 0 16 16"
   preserveAspectRatio="xMidYMid"
   id="svg20"
   sodipodi:docname="297633.svg"
   inkscape:version="1.2.1 (9c6d41e410, 2022-07-14)"
   xmlns:inkscape="http://www.inkscape.org/namespaces/inkscape"
   xmlns:sodipodi="http://sodipodi.sourceforge.net/DTD/sodipodi-0.dtd"
   xmlns="http://www.w3.org/2000/svg"
   xmlns:svg="http://www.w3.org/2000/svg">
  <defs
     id="defs24" />
  <sodipodi:namedview
     id="namedview22"
     pagecolor="#ffffff"
     bordercolor="#000000"
     borderopacity="0.25"
     inkscape:showpageshadow="2"
     inkscape:pageopacity="0.0"
     inkscape:pagecheckerboard="0"
     inkscape:deskcolor="#d1d1d1"
     inkscape:document-units="px"
     showgrid="false"
     inkscape:zoom="7.5566382"
     inkscape:cx="14.159736"
     inkscape:cy="13.233398"
     inkscape:window-width="1366"
     inkscape:window-height="697"
     inkscape:window-x="-8"
     inkscape:window-y="-8"
     inkscape:window-maximized="1"
     inkscape:current-layer="svg20" />
  <metadata
     id="metadata14">
Created by potrace 1.15, written by Peter Selinger 2001-2017
</metadata>
  <path
     d="M 0.76716783,2.8760024 C 0.60588255,2.9097598 0.50711095,2.9597708 0.41209015,3.0547916 0.37333167,3.09355 0.32207046,3.1585643 0.29956554,3.1973227 0.2783109,3.2348309 0.22579941,3.3010954 0.18454038,3.344855 0.09452069,3.436125 0.03200701,3.5574015 0.01200264,3.678678 0.00200044,3.738691 -0.00175036,4.9914652 7.501432e-4,8.1946659 0.00450114,12.538116 0.00450114,12.628136 0.02825614,12.689399 c 0.0787672,0.202545 0.22379896,0.345076 0.4200919,0.413841 0.0675148,0.02375 0.23005032,0.02375 7.43287596,0.02375 6.297627,0 7.372863,-0.0025 7.426624,-0.0175 0.161285,-0.04626 0.310069,-0.161285 0.392587,-0.305067 0.02125,-0.03751 0.07377,-0.103772 0.115025,-0.147532 0.09002,-0.09127 0.152533,-0.212546 0.172537,-0.333823 0.01,-0.06001 0.01375,-1.312787 0.01125,-4.5159879 -0.0038,-4.3409496 -0.0038,-4.4334698 -0.02751,-4.4947332 -0.07752,-0.1987935 -0.215047,-0.3363236 -0.41384,-0.4138405 -0.06126,-0.023755 -0.185042,-0.023755 -7.4141226,-0.025006 -4.0433844,-0.00125 -7.36286061,0 -7.37661362,0.0025 z M 14.013816,3.756195 C 14.012516,3.766197 8.1212765,7.3357281 8.1075235,7.3357281 8.0950205,7.3344781 2.2274872,3.7774496 2.2087332,3.7586955 c -0.005,-0.005 2.6493296,-0.00875 5.8987903,-0.00875 3.2482105,0 5.9062925,0.0025 5.9062925,0.00625 z m 1.160253,6.1088363 -0.0038,1.9454257 -1.062732,-0.95896 C 13.523709,10.323882 12.364705,9.278653 11.534523,8.528489 10.254243,7.3719859 10.027944,7.1631903 10.046698,7.1519378 10.152971,7.0931748 15.137811,4.062512 15.151564,4.048759 c 0.01625,-0.016254 0.01875,0.1975432 0.02251,1.9266714 0.0013,1.0689839 0.0013,2.8193668 0,3.8896009 z M 3.4552559,5.7691353 c 1.4303128,0.8676899 2.6018191,1.5790955 2.6043197,1.581596 0.00125,0.00125 -0.105023,0.1012722 -0.2375521,0.2212984 -0.493858,0.4463476 -4.95608409,4.4772293 -4.97608843,4.4959833 -0.0212547,0.0175 -0.0225049,-0.171287 -0.0225049,-3.9421121 0,-3.1669428 0.003751,-3.9571156 0.0162536,-3.9471135 0.007502,0.00625 1.18525913,0.7226581 2.61557213,1.5903479 z m 6.6964651,1.8716595 c 0.196293,0.1775387 0.988966,0.8939455 1.761635,1.5915982 0.772669,0.6976526 1.821649,1.64536 2.33176,2.10421 0.841434,0.760167 0.925202,0.840184 0.928953,0.877692 0.0038,0.03876 0.0013,0.04126 -0.02626,0.03376 -0.0175,-0.005 -0.545118,-0.472603 -1.172756,-1.040227 C 11.952115,9.3811754 10.111712,7.7195619 9.910418,7.5395226 9.7178758,7.3657346 9.7153752,7.363234 9.7403807,7.3407291 c 0.013753,-0.011252 0.031257,-0.021255 0.040009,-0.021255 0.0075,0 0.1750383,0.1450318 0.3713313,0.3213207 z m 0.352577,0.7951739 c 0.565123,0.5101116 1.727878,1.5603413 2.584315,2.3330103 0.856438,0.772669 1.575345,1.421561 1.5966,1.444066 l 0.04126,0.03876 H 7.9374863 c -3.7345669,0 -6.7877348,-0.0038 -6.7852342,-0.0087 0.0025,-0.0075 1.1239959,-1.022724 3.8283374,-3.4657582 C 5.695746,8.1321523 6.2983778,7.587033 6.3196324,7.5670286 l 0.038759,-0.036258 0.6363891,0.3863344 c 0.3500765,0.2125466 0.6563937,0.3963367 0.6801488,0.4088396 0.068765,0.036258 0.3113181,0.041259 0.4013378,0.00875 C 8.1137749,8.3209435 8.438846,8.1296517 8.800175,7.9096035 9.1615041,7.6895554 9.4603195,7.5082657 9.4665709,7.5082657 c 0.005,-0.00125 0.4713531,0.4163412 1.0377271,0.927703 z"
     id="path16"
     style="fill:#0000ff;stroke:none;stroke-width:0.00125027" />
</svg>
