<?xml version="1.0" encoding="UTF-8" standalone="no"?>
<svg
   version="1.0"
   width="16"
   height="16"
   viewBox="0 0 16 16"
   preserveAspectRatio="xMidYMid"
   id="svg230"
   sodipodi:docname="309113.svg"
   inkscape:version="1.2.1 (9c6d41e410, 2022-07-14)"
   xmlns:inkscape="http://www.inkscape.org/namespaces/inkscape"
   xmlns:sodipodi="http://sodipodi.sourceforge.net/DTD/sodipodi-0.dtd"
   xmlns="http://www.w3.org/2000/svg"
   xmlns:svg="http://www.w3.org/2000/svg">
  <defs
     id="defs234" />
  <sodipodi:namedview
     id="namedview232"
     pagecolor="#ffffff"
     bordercolor="#000000"
     borderopacity="0.25"
     inkscape:showpageshadow="2"
     inkscape:pageopacity="0.0"
     inkscape:pagecheckerboard="0"
     inkscape:deskcolor="#d1d1d1"
     inkscape:document-units="px"
     showgrid="false"
     inkscape:zoom="20.577114"
     inkscape:cx="20.848404"
     inkscape:cy="8.9905706"
     inkscape:window-width="1366"
     inkscape:window-height="697"
     inkscape:window-x="-8"
     inkscape:window-y="-8"
     inkscape:window-maximized="1"
     inkscape:current-layer="g228" />
  <metadata
     id="metadata222">
Created by potrace 1.15, written by Peter Selinger 2001-2017
</metadata>
  <g
     transform="matrix(0.1,0,0,-0.1,0,1206)"
     fill="#0000ff"
     stroke="none"
     id="g228">
    <path
       id="path224"
       d="m 79.268733,12059.999 -6.424484,-6.039 c -3.524718,-3.319 -17.723656,-16.671 -31.535057,-29.664 -13.8239,-12.98 -27.060376,-25.444 -29.435186,-27.673 -2.3748112,-2.229 -5.7495501,-5.401 -7.4994108,-7.035 -1.7498608,-1.645 -3.4496316,-3.25 -3.77460573,-3.582 L 0,11985.408 l 4.1246759,-4.91 c 2.2623198,-2.695 4.1995845,-4.897 4.2870774,-4.897 0.099992,0 7.5369537,6.914 16.5362377,15.342 47.221241,44.222 54.845689,51.337 54.933182,51.31 0.05,-0.03 5.874679,-5.481 12.949116,-12.13 7.061939,-6.649 23.023151,-21.648 35.447171,-33.34 12.42401,-11.693 22.64811,-21.262 22.71061,-21.262 0.0625,0 0.14998,0.07 0.18749,0.133 0.0625,0.107 0.13756,0.09 0.26255,-0.01 0.23748,-0.199 -0.12507,-0.598 4.23709,4.658 1.91235,2.296 3.66236,4.393 3.89984,4.659 l 0.42496,0.478 -10.47428,9.808 c -5.76203,5.402 -19.29847,18.091 -30.09761,28.191 -10.78664,10.113 -23.985641,22.469 -29.335215,27.473 l -9.69925,9.092 h -0.562456 z m 0.587539,-28.788 c -0.162487,0.01 -3.087287,-2.655 -8.524353,-7.764 -4.549639,-4.275 -17.123666,-16.1 -27.935304,-26.267 l -19.64842,-18.487 0.02489,-38.119 0.03753,-38.118 0.275004,-0.544 c 0.149987,-0.306 0.512447,-0.77 0.799924,-1.022 1.037418,-0.956 -0.300004,-0.889 19.510919,-0.889 h 17.848633 l 0.02508,16.896 c 0.03749,16.802 0.03743,16.882 0.299904,17.478 0.324975,0.771 0.949975,1.434 1.674918,1.779 0.562454,0.279 0.64989,0.279 15.298724,0.319 16.298702,0.04 15.59886,0.07 16.523788,-0.796 0.649946,-0.611 1.012273,-1.288 1.16226,-2.164 0.1,-0.531 0.137502,-6.026 0.137502,-17.148 v -16.364 l 18.548589,0.03 18.56105,0.04 0.37496,0.385 c 0.21249,0.212 0.56249,0.836 0.78747,1.393 l 0.4125,1.01 0.0249,37.958 0.0251,37.96 -27.99792,26.212 c -15.873739,14.865 -28.110171,26.226 -28.247661,26.226 z"
       style="stroke-width:0.0128798" />
  </g>
</svg>
