<?xml version="1.0" encoding="UTF-8" standalone="no"?>
<svg
   version="1.0"
   width="16"
   height="16"
   viewBox="0 0 16 16.000001"
   preserveAspectRatio="xMidYMid"
   id="svg35"
   sodipodi:docname="651704.svg"
   inkscape:version="1.2.1 (9c6d41e410, 2022-07-14)"
   xmlns:inkscape="http://www.inkscape.org/namespaces/inkscape"
   xmlns:sodipodi="http://sodipodi.sourceforge.net/DTD/sodipodi-0.dtd"
   xmlns="http://www.w3.org/2000/svg"
   xmlns:svg="http://www.w3.org/2000/svg">
  <defs
     id="defs39" />
  <sodipodi:namedview
     id="namedview37"
     pagecolor="#ffffff"
     bordercolor="#000000"
     borderopacity="0.25"
     inkscape:showpageshadow="2"
     inkscape:pageopacity="0.0"
     inkscape:pagecheckerboard="0"
     inkscape:deskcolor="#d1d1d1"
     inkscape:document-units="px"
     showgrid="false"
     inkscape:zoom="9.2155567"
     inkscape:cx="11.827826"
     inkscape:cy="15.191703"
     inkscape:window-width="1366"
     inkscape:window-height="697"
     inkscape:window-x="-8"
     inkscape:window-y="-8"
     inkscape:window-maximized="1"
     inkscape:current-layer="svg35" />
  <metadata
     id="metadata25">
Created by potrace 1.15, written by Peter Selinger 2001-2017
</metadata>
  <path
     id="path27"
     style="fill:#0000ff;stroke:none;stroke-width:0.00125072"
     d="M 5.7818712,0 C 5.7407538,3.5176465e-4 5.7013443,0.00671138 5.6666368,0.01953125 5.6328675,0.03203844 5.3792949,0.17248756 5.1041368,0.33007812 4.8289787,0.48891941 4.4705577,0.69385378 4.309215,0.78515625 3.9327486,0.99902916 3.8707223,1.0580917 3.8306993,1.2519531 c -0.028767,0.1325762 -0.01841,0.1554284 0.3417969,0.7695313 0.600345,1.0255893 1.8315331,3.0681693 1.8828125,3.1269531 0.067539,0.073792 0.1643168,0.1319381 0.265625,0.1582031 0.1413312,0.03502 0.14782,0.035064 0.8144531,-0.3476562 C 7.4630751,4.7701259 7.8271154,4.5604288 7.9459337,4.4941406 8.2411034,4.3265443 8.3184143,4.2388693 8.3521837,4.03125 8.3784489,3.8699073 8.3674221,3.8436253 8.0885118,3.3808594 6.7815107,1.2183666 6.144468,0.17158478 6.1119493,0.1328125 6.0434725,0.0512031 5.9052233,-0.00105529 5.7818712,0 Z M 3.4908556,1.6621094 c -0.00625,0 -0.070585,0.015144 -0.140625,0.035156 -0.662881,0.1901092 -1.1165134,0.6728485 -1.3378907,1.4257813 -0.3564548,1.209445 -0.082276,3.1135502 0.7519532,5.2285156 0.8442351,2.1387295 2.1223243,4.1702785 3.515625,5.5898435 1.1931857,1.214448 2.3312983,1.883426 3.4707031,2.041016 0.1588412,0.02251 0.6349158,0.02316 0.7812498,0.002 0.272657,-0.04127 0.515721,-0.106117 0.75586,-0.201172 0.107561,-0.04378 0.221319,-0.09687 0.236328,-0.109375 0.0063,-0.005 -1.09188,-1.914023 -1.220703,-2.11914 C 10.17203,13.344518 9.9152254,12.923503 9.5162462,12.265625 9.303624,11.916674 9.3404187,11.94466 9.1490587,11.992188 c -0.160092,0.03877 -0.4927821,0.04208 -0.6816406,0.0059 C 8.0534302,11.921706 7.5789118,11.683945 7.1549181,11.34375 6.9810681,11.20492 6.6573553,10.890733 6.4947618,10.703125 6.2483702,10.417961 5.9992561,10.069654 5.7916368,9.7207031 5.6653143,9.5080809 5.6019975,9.3844972 5.5181993,9.171875 5.3080786,8.6390688 5.1776891,8.1460694 5.1139024,7.6445312 5.0826345,7.3968889 5.0866948,6.9698183 5.121715,6.7421875 5.188003,6.3006837 5.343525,5.9328308 5.5924181,5.6289062 c 0.037522,-0.045026 0.065002,-0.084841 0.0625,-0.089844 -0.0025,-0.00375 -0.070345,-0.119531 -0.1503907,-0.2558594 C 5.2944068,4.9254976 4.9877851,4.3673323 4.4849962,3.4355469 3.8696426,2.2923899 3.5146193,1.6608587 3.4908556,1.6621094 Z m 8.1347654,8.4687496 c -0.06629,-0.0025 -0.122875,0.0037 -0.15039,0.01367 -0.02376,0.01001 -0.295291,0.162944 -0.605469,0.341797 -0.308928,0.178853 -0.667349,0.383787 -0.794922,0.455078 -0.2488931,0.141331 -0.3347369,0.209941 -0.3847657,0.3125 -0.063787,0.131325 -0.060981,0.270008 0.00781,0.392578 0.8767542,1.555895 2.1011322,3.661131 2.1699212,3.732422 0.02251,0.02251 0.07606,0.05881 0.121094,0.08008 0.07379,0.03627 0.0904,0.04102 0.199219,0.04102 h 0.121094 l 0.199219,-0.115234 c 0.110063,-0.06254 0.480271,-0.276294 0.824218,-0.472657 0.343948,-0.197613 0.640145,-0.373818 0.660156,-0.392578 0.05128,-0.04753 0.09553,-0.117922 0.123047,-0.199219 0.02752,-0.07879 0.03349,-0.248867 0.0098,-0.316406 -0.0075,-0.02376 -0.126642,-0.230805 -0.261719,-0.460937 -0.136329,-0.230133 -0.503178,-0.862034 -0.818359,-1.402344 -0.820471,-1.407059 -1.068101,-1.824423 -1.109375,-1.876953 -0.02251,-0.02877 -0.06982,-0.06288 -0.121094,-0.08789 -0.07129,-0.03502 -0.0969,-0.04241 -0.189453,-0.04492 z" />
</svg>
