<?xml version="1.0" encoding="UTF-8" standalone="no"?>
<svg
   width="100"
   height="100"
   version="1.1"
   viewBox="0 0 100 100"
   id="svg1504"
   sodipodi:docname="Json.svg"
   xml:space="preserve"
   inkscape:export-filename="Json.svg"
   inkscape:export-xdpi="96"
   inkscape:export-ydpi="96"
   xmlns:inkscape="http://www.inkscape.org/namespaces/inkscape"
   xmlns:sodipodi="http://sodipodi.sourceforge.net/DTD/sodipodi-0.dtd"
   xmlns="http://www.w3.org/2000/svg"
   xmlns:svg="http://www.w3.org/2000/svg"><defs
     id="defs1508" /><sodipodi:namedview
     id="namedview1506"
     pagecolor="#ffffff"
     bordercolor="#000000"
     borderopacity="0.25"
     inkscape:showpageshadow="2"
     inkscape:pageopacity="0.0"
     inkscape:pagecheckerboard="0"
     inkscape:deskcolor="#d1d1d1"
     inkscape:document-units="px"
     showgrid="false" /><path
     d="M 41.606382,0 C 40.7418,0.00278571 39.914485,0.33203532 39.303433,0.91517837 38.692383,1.4983201 38.348221,2.2879446 38.344573,3.1124963 V 14.209091 c -5.597501,1.68039 -10.665898,4.471244 -14.989471,8.258204 l -10.0526,-5.560172 v -6.7e-4 C 12.549745,16.494204 11.655189,16.383292 10.816948,16.600239 9.9786705,16.816471 9.2653722,17.34172 8.8328086,18.060202 L 0.44273162,31.951793 c -0.43411549,0.716373 -0.55250998,1.568068 -0.32960436,2.36821 0.22290422,0.799392 0.76884718,1.482285 1.51868504,1.898034 l 9.6177927,5.3041 c -0.670174,2.789461 -1.3016186,5.598566 -1.3045555,8.465347 v 0.02511 c 0.00877,2.872497 0.6519135,5.672492 1.3301315,8.465347 l -9.6434248,5.304101 c -0.75129723,0.415731 -1.29869952,1.099319 -1.52160375,1.90089 -0.22363529,0.801481 -0.10378005,1.654569 0.33252304,2.371604 l 8.39007701,13.88534 c 0.4326562,0.718465 1.1459558,1.243713 1.9841395,1.46066 0.838278,0.216231 1.732815,0.106027 2.485554,-0.306928 l 10.0526,-5.535709 c 4.324322,3.777853 9.395712,6.559636 14.989471,8.233741 v 11.071416 c -0.0036,0.828676 0.33838,1.624586 0.950086,2.213389 0.611706,0.588036 1.442669,0.92075 2.311555,0.923553 h 16.799051 c 0.868232,-0.0028 1.699924,-0.335517 2.310994,-0.923553 0.611707,-0.58873 0.953754,-1.384623 0.950086,-2.213389 v -11.07213 c 5.597501,-1.680392 10.660098,-4.471245 14.982922,-8.258205 l 10.052601,5.560172 7.01e-4,6.69e-4 c 0.753486,0.41434 1.648773,0.525947 2.488548,0.309715 0.839737,-0.216929 1.555225,-0.742893 1.987881,-1.463445 l 8.383529,-13.885339 c 0.434116,-0.719162 0.551049,-1.574356 0.324497,-2.375891 C 99.659686,64.877123 99.108617,64.194926 98.35367,63.782 l -9.617792,-5.304103 c 0.67384,-2.795708 1.327212,-5.591421 1.330131,-8.465347 v -0.02511 c -0.0088,-2.866961 -0.654832,-5.678029 -1.330131,-8.465347 l 9.617792,-5.304101 c 0.752758,-0.412945 1.303078,-1.093749 1.530379,-1.893747 0.226551,-0.800089 0.110356,-1.653873 -0.321578,-2.372318 L 91.178942,18.060336 c -0.432656,-0.720571 -1.148144,-1.246517 -1.987881,-1.463445 -0.839737,-0.216232 -1.735005,-0.104632 -2.488548,0.309713 L 76.649912,22.442313 C 72.332169,18.669996 67.251424,15.883927 61.66702,14.208572 L 61.666318,3.1126932 C 61.663371,2.2881937 61.318405,1.4985705 60.707429,0.9153739 60.096452,0.33217862 59.269138,0.00298259 58.405227,1.9687476e-4 Z m 3.286508,6.249993 h 10.225102 v 9.600345 c 0.0015,0.705213 0.252147,1.389499 0.711839,1.941248 0.459691,0.551749 1.101371,0.938892 1.820525,1.098624 6.418286,1.43414 12.237869,4.646423 16.754523,9.228559 0.505006,0.518269 1.178846,0.857982 1.911921,0.963303 0.733037,0.105328 1.481416,-0.02999 2.123899,-0.383642 l 8.703649,-4.797673 5.122467,8.465347 -8.729093,4.797673 h -7.02e-4 c -0.636552,0.357142 -1.128406,0.908892 -1.395164,1.565283 -0.26749,0.657089 -0.293796,1.381142 -0.07528,2.054284 0.956672,2.993925 1.441939,6.098564 1.451445,9.228561 -0.0051,3.123567 -0.502819,6.239457 -1.451445,9.228561 -0.216319,0.675928 -0.185634,1.402068 0.08624,2.059104 0.271138,0.657088 0.768847,1.207445 1.409796,1.560409 l 8.703648,4.778922 -5.122467,8.465347 -8.729092,-4.797671 7.01e-4,6.7e-4 c -0.63876,-0.357143 -1.38566,-0.497358 -2.11866,-0.397607 -0.732307,0.09975 -1.408318,0.433177 -1.916974,0.94657 -4.511414,4.581423 -10.316591,7.789455 -16.728889,9.22856 -0.720614,0.160435 -1.363022,0.548268 -1.822714,1.101427 -0.459692,0.55316 -0.709652,1.238838 -0.709652,1.94482 v 9.619094 h -10.2251 V 84.15548 c 0,-0.707303 -0.250669,-1.392997 -0.711839,-1.946068 -0.461151,-0.553161 -1.10502,-0.940981 -1.827092,-1.100034 -6.418286,-1.434142 -12.256953,-4.646423 -16.773419,-9.228561 -0.503548,-0.511303 -1.172991,-0.846124 -1.900135,-0.950051 -0.72791,-0.103935 -1.470453,0.0286 -2.109118,0.376676 l -8.703648,4.79696 -5.1224669,-8.465347 8.6969109,-4.80321 c 0.643139,-0.352265 1.141578,-0.901928 1.414175,-1.559014 0.273326,-0.657787 0.304028,-1.383929 0.08916,-2.060535 -0.956671,-2.993924 -1.441939,-6.098563 -1.451443,-9.22856 0.0051,-3.123568 0.502816,-6.239457 1.451443,-9.228561 0.214859,-0.676623 0.184173,-1.402766 -0.08916,-2.060532 -0.272597,-0.657089 -0.771036,-1.206749 -1.414175,-1.559017 l -8.6969109,-4.773208 5.1224669,-8.465347 8.722543,4.797673 c 0.637282,0.352266 1.380555,0.488284 2.10912,0.387838 0.728641,-0.101144 1.400292,-0.433178 1.906683,-0.943071 4.511416,-4.581423 10.335488,-7.790168 16.747974,-9.228559 0.722072,-0.15904 1.365941,-0.546875 1.827092,-1.100034 0.461151,-0.553161 0.711839,-1.238838 0.711839,-1.945534 z m 16.40877,32.746388 7.02e-4,-6.69e-4 c -0.113281,-0.0014 -0.226554,0.0028 -0.33911,0.01185 -0.832422,0.07952 -1.601999,0.459678 -2.150093,1.062355 -0.548131,0.603375 -0.833881,1.384625 -0.798071,2.181962 0.03654,0.797999 0.390991,1.552731 0.991022,2.108749 l 5.896478,5.652135 -5.896478,5.627852 v -6.69e-4 c -0.632904,0.583838 -0.993211,1.385319 -0.999797,2.225176 -0.0066,0.839838 0.341298,1.646908 0.965447,2.239104 0.624148,0.592196 1.471182,0.920053 2.351033,0.908891 0.879925,-0.01046 1.718203,-0.35923 2.326335,-0.966106 l 8.217576,-7.843204 c 0.609517,-0.58593 0.951545,-1.377642 0.951545,-2.203571 0,-0.825927 -0.342028,-1.617604 -0.951545,-2.203568 l -8.217576,-7.843205 v 6.69e-4 c -0.614643,-0.609659 -1.460947,-0.954945 -2.34673,-0.958428 z m -22.694593,0.01185 7.02e-4,-6.7e-4 c -0.848513,0.02581 -1.65315,0.365518 -2.244389,0.94657 l -8.217576,7.843206 v -6.7e-4 c -0.610247,0.585927 -0.952275,1.377641 -0.952275,2.203568 0,0.825929 0.342028,1.617606 0.952275,2.203571 l 8.217576,7.843204 c 0.593446,0.661267 1.448524,1.056089 2.360575,1.089571 0.911357,0.03348 1.796408,-0.29716 2.441773,-0.913088 0.644597,-0.615232 0.991751,-1.459963 0.956671,-2.330534 -0.03581,-0.869838 -0.449457,-1.686658 -1.142306,-2.253032 l -5.902279,-5.627852 5.902279,-5.651422 c 0.627796,-0.588732 0.980788,-1.394391 0.978599,-2.234997 -0.0022,-0.840535 -0.358119,-1.644802 -0.988834,-2.231425 -0.630715,-0.586643 -1.482145,-0.906107 -2.362071,-0.885875 z m 13.671762,0.27484 7.02e-4,-6.7e-4 c -0.102319,-0.0028 -0.204644,-6.69e-4 -0.306948,0.0063 -0.695768,0.03627 -1.360816,0.284607 -1.899386,0.706606 -0.537897,0.422714 -0.920861,0.998178 -1.093344,1.643409 l -4.2594,15.130341 h 7.02e-4 c -0.275534,0.812641 -0.190014,1.697122 0.236057,2.448389 0.42607,0.751249 1.155459,1.303017 2.018566,1.527624 0.863123,0.224606 1.785445,0.102538 2.552159,-0.338303 0.765929,-0.441554 1.309663,-1.162106 1.504803,-1.995713 l 4.252663,-15.154805 v -6.69e-4 c 0.272598,-0.918661 0.08989,-1.905713 -0.496231,-2.679997 -0.5854,-0.774267 -1.509911,-1.250695 -2.509689,-1.293249 z"
     fill="#B22222"
     id="path2998"
     style="stroke-width:0.182783" /></svg>
