<?xml version="1.0" encoding="UTF-8" standalone="no"?>
<!-- Created with Inkscape (http://www.inkscape.org/) -->

<svg
   width="100"
   height="100"
   viewBox="0 0 100 100"
   version="1.1"
   id="svg1018"
   inkscape:export-filename="bitmap.svg"
   inkscape:export-xdpi="96"
   inkscape:export-ydpi="96"
   sodipodi:docname="Grupo.svg"
   inkscape:version="1.2.1 (9c6d41e410, 2022-07-14)"
   xmlns:inkscape="http://www.inkscape.org/namespaces/inkscape"
   xmlns:sodipodi="http://sodipodi.sourceforge.net/DTD/sodipodi-0.dtd"
   xmlns="http://www.w3.org/2000/svg"
   xmlns:svg="http://www.w3.org/2000/svg">
   fill=
  <sodipodi:namedview
   id="namedview1020"
   fill="#5F9EA0"
   pagecolor="#ffffff"
   bordercolor="#000000"
   borderopacity="0.25"
   inkscape:showpageshadow="2"
   inkscape:pageopacity="0.0"
   inkscape:pagecheckerboard="0"
   inkscape:deskcolor="#d1d1d1"
   inkscape:document-units="px"
   showgrid="false"
   inkscape:zoom="5.17"
   inkscape:cx="49.903288"
   inkscape:cy="50.096712"
   inkscape:window-width="1366"
   inkscape:window-height="697"
   inkscape:window-x="-8"
   inkscape:window-y="-8"
   inkscape:window-maximized="1"
   inkscape:current-layer="layer1" />
<defs
   id="defs1015" />
<g
   inkscape:label="Camada 1"
   inkscape:groupmode="layer"
   id="layer1">
  <g
     id="g135"
     transform="matrix(0.19047468,0,0,0.19017811,-16.664987,-3.1732979)"
     style="fill:#008080">
    <path
       d="m 350,217.66 c -10.441,0 -20.457,4.1484 -27.844,11.531 -7.3828,7.3867 -11.531,17.402 -11.531,27.844 0,10.442 4.1484,20.457 11.531,27.844 7.3867,7.3828 17.402,11.531 27.844,11.531 10.442,0 20.457,-4.1484 27.844,-11.531 7.3828,-7.3867 11.531,-17.402 11.531,-27.844 -0.0117,-10.438 -4.1641,-20.449 -11.547,-27.828 C 370.4491,221.8242 360.437,217.672 350,217.66 Z m 0,61.25 c -5.8008,0 -11.367,-2.3047 -15.469,-6.4062 -4.102,-4.1015 -6.4062,-9.668 -6.4062,-15.469 0,-5.801 2.3047,-11.367 6.4062,-15.469 4.1015,-4.102 9.668,-6.4062 15.469,-6.4062 5.801,0 11.367,2.3047 15.469,6.4062 4.102,4.1015 6.4062,9.668 6.4062,15.469 0,5.801 -2.3047,11.367 -6.4062,15.469 -4.1015,4.102 -9.668,6.4062 -15.469,6.4062 z"
       id="path43"
       style="fill:#008080" />
    <path
       d="m 533.75,471.62 c 6.9609,0 13.641,-2.7656 18.562,-7.6875 4.921,-4.9219 7.6875,-11.602 7.6875,-18.562 0,-6.96 -2.7656,-13.641 -7.6875,-18.562 -4.9219,-4.921 -11.602,-7.6875 -18.562,-7.6875 -6.96,0 -13.641,2.7656 -18.562,7.6875 -4.921,4.9219 -7.6875,11.602 -7.6875,18.562 0,6.96 2.7656,13.641 7.6875,18.562 4.9219,4.921 11.602,7.6875 18.562,7.6875 z m 0,-35 c 3.5391,0 6.7305,2.1328 8.082,5.4023 1.3555,3.2695 0.60938,7.0312 -1.8945,9.5352 -2.50388,2.504 -6.2656,3.25 -9.5352,1.8945 C 527.1328,452.1004 525,448.909 525,445.37 c 0,-4.832 3.918,-8.75 8.75,-8.75 z"
       id="path45"
       style="fill:#008080" />
    <path
       d="m 533.75,51.625 c -6.9609,0 -13.641,2.7656 -18.562,7.6875 -4.921,4.9219 -7.6875,11.602 -7.6875,18.562 0,6.96 2.7656,13.641 7.6875,18.562 4.9219,4.921 11.602,7.6875 18.562,7.6875 6.96,0 13.641,-2.7656 18.562,-7.6875 4.921,-4.9219 7.6875,-11.602 7.6875,-18.562 0,-6.96 -2.7656,-13.641 -7.6875,-18.562 -4.9219,-4.921 -11.602,-7.6875 -18.562,-7.6875 z m 0,35 c -3.5391,0 -6.7305,-2.1328 -8.082,-5.4023 -1.3555,-3.2695 -0.60938,-7.0312 1.8945,-9.5352 2.50388,-2.504 6.2656,-3.25 9.5352,-1.8945 3.2695,1.3516 5.4023,4.543 5.4023,8.082 0,2.3203 -0.92188,4.5469 -2.5625,6.1875 -1.64062,1.6406 -3.8672,2.5625 -6.1875,2.5625 z"
       id="path47"
       style="fill:#008080" />
    <path
       d="m 533.75,17.5 c -19.875,-0.02344 -39.023,7.4766 -53.594,20.996 -14.57,13.52 -23.484,32.055 -24.945,51.879 -1.4609,19.82 4.6406,39.461 17.07,54.973 l -60.734,60.734 v -0.004 C 394.281,191.652 372.5,183.75 350,183.75 c -22.5,0 -44.281,7.9023 -61.547,22.328 l -61.109,-61.109 c 13.52,-16.672 19.645,-38.141 16.957,-59.437996 -2.6914,-21.293 -13.961,-40.566 -31.203,-53.355 -17.238,-12.785 -38.953,-17.977 -60.113,-14.371 -21.16,3.6094 -39.93,15.703 -51.957,33.48 -12.027,17.777 -16.277,39.699 -11.754,60.679996 4.5195,20.984 17.414,39.211 35.695,50.461 l 0.10547,0.0625 -0.0508,0.0859 15.516,8.1211 c 0.15625,-0.30469 0.32422,-0.59375 0.48047,-0.875 h -0.004 c 25.145,8.7812 53.035,4.0312 73.859,-12.574 l 61.25,61.25 c -14.426,17.266 -22.332,39.051 -22.332,61.547 0,22.5 7.9062,44.285 22.332,61.547 l -60.734,60.734 c -21.02,-16.98 -49.328,-21.879 -74.832,-12.949 -0.13281,-0.25391 -0.28125,-0.50781 -0.41016,-0.76172 l -10.762,5.5742 c -0.29688,0.15625 -0.60547,0.30469 -0.875,0.47266 l -3.8672,2.0039 0.14062,0.26172 c -20.445,12.645 -33.987997,33.938 -36.765997,57.816 -2.7773,23.875 5.5117,47.711 22.503997,64.711 16.992,17 40.824,25.301 64.703,22.531 23.879,-2.7695 45.18,-16.305 57.828,-36.742 l 0.24609,0.14062 1.9609,-3.7695 c 0.21094,-0.375 0.40234,-0.76953 0.60547,-1.1562 l 5.5195,-10.598 c -0.26172,-0.13281 -0.51562,-0.28125 -0.77734,-0.42188 v 0.004 c 8.9297,-25.48 4.0547,-53.766 -12.891,-74.789 l 60.734,-60.734 v 0.004 c 17.266,14.426 39.047,22.328 61.547,22.328 22.5,0 44.281,-7.9023 61.547,-22.328 l 60.734,60.734 v -0.004 c -16.953,21.02 -21.832,49.305 -12.906,74.789 -0.26172,0.14062 -0.51562,0.28906 -0.77734,0.42188 l 5.5195,10.598 c 0.20312,0.38672 0.39453,0.77734 0.60547,1.1562 l 1.9609,3.7695 0.24609,-0.14062 -0.004,-0.004 c 12.652,20.43 33.949,33.957 57.82,36.727 23.867,2.7695 47.695,-5.5234 64.688,-22.516 16.992,-16.988 25.289,-40.816 22.523,-64.684 -2.7656,-23.871 -16.289,-45.172 -36.715,-57.824 l 0.14062,-0.26172 -3.8672,-2.0039 c -0.29688,-0.16797 -0.60547,-0.31641 -0.875,-0.47266 l -10.762,-5.5742 c -0.13281,0.25391 -0.28125,0.50781 -0.41016,0.76172 l -0.004,-0.004 c -25.477,-8.9297 -53.766,-4.0547 -74.785,12.891 l -60.734,-60.734 c 14.426,-17.266 22.332,-39.047 22.332,-61.547 0,-22.5 -7.9062,-44.281 -22.332,-61.547 l 60.734,-60.734 c 21.012,16.941 49.285,21.824 74.762,12.906 0.13281,0.25391 0.28125,0.50781 0.41016,0.76172 l 10.762,-5.5742 c 0.29688,-0.15625 0.60547,-0.30469 0.875,-0.47266 l 3.8672,-2.0039 -0.14062,-0.26172 c 19.547,-12.094 32.828,-32.129 36.352,-54.84 3.5234,-22.715004 -3.0625,-45.832004 -18.023,-63.277004 -14.965,-17.449 -36.809,-27.48 -59.793,-27.457 z M 105,95.375 c -0.0391,-20.605 10.285,-39.852 27.477,-51.211 17.191,-11.363 38.941,-13.32 57.883,-5.2109 18.945,8.1133 32.539,25.207 36.176,45.488 3.6406,20.281 -3.1602,41.035 -18.102,55.227 -4.4453,-11.391 -13.305,-20.5 -24.566,-25.254 -11.262,-4.7578 -23.973,-4.7578 -35.234,0 -11.262,4.7539 -20.121,13.863 -24.566,25.254 -12.195,-11.5 -19.094,-27.531 -19.066,-44.293 z m 33.984,54.715 c 1.9297,-8.2734 7.5117,-15.227 15.172,-18.895 7.6641,-3.6719 16.578,-3.6641 24.234,0.0195 7.6562,3.6797 13.227,10.641 15.141,18.918 -17.152,8.668 -37.406,8.6523 -54.547,-0.043 z m 0,368.38 c 1.9297,-8.2734 7.5117,-15.227 15.172,-18.895 7.6641,-3.6719 16.578,-3.6641 24.234,0.0195 7.6562,3.6797 13.227,10.641 15.141,18.918 -17.152,8.668 -37.406,8.6523 -54.547,-0.043 z m 69.449,-10.422 c -4.4453,-11.391 -13.305,-20.5 -24.566,-25.254 -11.262,-4.7578 -23.973,-4.7578 -35.234,0 -11.262,4.7539 -20.121,13.863 -24.566,25.254 -11.91,-11.312 -18.777,-26.938 -19.059,-43.359 -0.28125,-16.426 6.0469,-32.273 17.562,-43.988 11.516,-11.715 27.254,-18.312 43.68,-18.312 16.426,0 32.164,6.5977 43.68,18.312 11.516,11.715 17.844,27.562 17.562,43.988 -0.28125,16.422 -7.1484,32.047 -19.059,43.359 z m 105.19,-158.27 c 2.0664,-11.461 9.4141,-21.281 19.828,-26.492 10.414,-5.2148 22.68,-5.2148 33.094,0 10.414,5.2109 17.762,15.031 19.828,26.492 -22.773,11.965 -49.977,11.965 -72.75,0 z m 192.93,168.78 c 2.0039,-8.1758 7.5781,-15.016 15.18,-18.625 7.6055,-3.6133 16.426,-3.6133 24.031,0 7.6016,3.6094 13.176,10.449 15.18,18.625 -17.109,8.5977 -37.281,8.5977 -54.391,0 z m 27.195,-116.05 c 16.438,-0.0195 32.195,6.5781 43.715,18.305 11.52,11.73 17.832,27.602 17.52,44.035 -0.3125,16.438 -7.2305,32.055 -19.191,43.332 -4.4922,-11.285 -13.332,-20.293 -24.535,-24.996 -11.203,-4.6992 -23.824,-4.6992 -35.023,0 -11.203,4.7031 -20.047,13.711 -24.535,24.996 -11.961,-11.277 -18.879,-26.898 -19.191,-43.336 -0.3125,-16.434 6,-32.309 17.523,-44.035 11.52,-11.727 27.277,-18.324 43.719,-18.301 z m -131.98,-63.297 c -4.8555,-14.586 -15.637,-26.445 -29.695,-32.664 -14.055,-6.2188 -30.086,-6.2188 -44.141,0 -14.059,6.2188 -24.84,18.078 -29.695,32.664 -16.207,-14.137 -25.926,-34.289 -26.902,-55.77 -0.97656,-21.484 6.875,-42.434 21.734,-57.984 14.855,-15.547 35.426,-24.344 56.934,-24.344 21.508,0 42.078,8.7969 56.934,24.344 14.859,15.551 22.711,36.5 21.734,57.984 -0.97656,21.48 -10.695,41.633 -26.902,55.77 z m 104.79,-188.12 c 2.0039,-8.1758 7.5781,-15.016 15.18,-18.625 7.6055,-3.6133 16.426,-3.6133 24.031,0 7.6016,3.6094 13.176,10.449 15.18,18.625 -17.109,8.5977 -37.281,8.5977 -54.391,0 z m 69.238,-10.379 c -4.4922,-11.285 -13.332,-20.293 -24.535,-24.996 -11.203,-4.6992 -23.824,-4.6992 -35.023,0 -11.203,4.7031 -20.047,13.711 -24.535,24.996 -11.961,-11.289 -18.879,-26.918 -19.191,-43.363 -0.31641,-16.445 5.9961,-32.324 17.516,-44.066 11.516,-11.742 27.273,-18.355 43.723,-18.355 16.449,0 32.203,6.6133 43.723,18.355 11.52,11.742 17.832,27.621 17.516,44.066 -0.31641,16.445 -7.2305,32.074 -19.191,43.363 z"
       id="path49"
       style="fill:#008080" />
    <path
       d="m 166.25,419.12 c -6.9609,0 -13.641,2.7656 -18.562,7.6875 -4.921,4.9219 -7.6875,11.602 -7.6875,18.562 0,6.96 2.7656,13.641 7.6875,18.562 4.9219,4.921 11.602,7.6875 18.562,7.6875 6.96,0 13.641,-2.7656 18.562,-7.6875 4.921,-4.9219 7.6875,-11.602 7.6875,-18.562 0,-6.96 -2.7656,-13.641 -7.6875,-18.562 -4.9219,-4.921 -11.602,-7.6875 -18.562,-7.6875 z m 0,35 c -3.5391,0 -6.7305,-2.1328 -8.082,-5.4023 -1.3555,-3.2695 -0.60938,-7.0312 1.8945,-9.5352 2.50388,-2.504 6.2656,-3.25 9.5352,-1.8945 3.2695,1.3516 5.4023,4.543 5.4023,8.082 0,2.3203 -0.92188,4.5469 -2.5625,6.1875 -1.64062,1.6406 -3.8672,2.5625 -6.1875,2.5625 z"
       id="path51"
       style="fill:#008080" />
    <path
       d="m 166.25,103.25 c 6.9609,0 13.641,-2.7656 18.562,-7.6875 4.921,-4.9219 7.6875,-11.602 7.6875,-18.562 0,-6.96 -2.7656,-13.641 -7.6875,-18.562 -4.9219,-4.921 -11.602,-7.6875 -18.562,-7.6875 -6.96,0 -13.641,2.7656 -18.562,7.6875 -4.921,4.9219 -7.6875,11.602 -7.6875,18.562 0,6.96 2.7656,13.641 7.6875,18.562 4.9219,4.921 11.602,7.6875 18.562,7.6875 z m 0,-35 c 3.5391,0 6.7305,2.1328 8.082,5.4023 1.3555,3.2695 0.60938,7.0312 -1.8945,9.5352 -2.50388,2.504 -6.2656,3.25 -9.5352,1.8945 C 159.6328,83.7304 157.5,80.539 157.5,77 c 0,-2.3203 0.92188,-4.5469 2.5625,-6.1875 1.64062,-1.6406 3.8672,-2.5625 6.1875,-2.5625 z"
       id="path53"
       style="fill:#008080" />
    <path
       d="m 376.07,514.82 c -5.6875,0.62109 -11.516,1.0508 -17.316,1.2617 l 0.64062,17.5 c 6.2305,-0.21875 12.477,-0.68359 18.578,-1.3477 z"
       id="path55"
       style="fill:#008080" />
    <path
       d="m 442.95,497.27 c -5.3281,2.2852 -10.77,4.375 -16.188,6.2305 l 5.6719,16.562 c 5.8203,-1.9961 11.68,-4.2539 17.414,-6.7109 z"
       id="path57"
       style="fill:#008080" />
    <path
       d="m 289.96,508.55 -4.4375,16.941 c 5.9844,1.5586 12.109,2.9297 18.199,4.0508 l 3.168,-17.211 c -5.668,-1.043 -11.363,-2.3203 -16.93,-3.7812 z"
       id="path59"
       style="fill:#008080" />
    <path
       d="m 341.38,516.09 c -5.7656,-0.20312 -11.586,-0.62891 -17.309,-1.25 l -1.9062,17.395 c 6.125,0.67188 12.406,1.1289 18.594,1.3398 z"
       id="path61"
       style="fill:#008080" />
    <path
       d="m 410.16,508.52 c -5.5312,1.4531 -11.234,2.7305 -16.941,3.7891 l 3.1953,17.211 c 6.125,-1.1367 12.25,-2.5117 18.184,-4.0586 z"
       id="path63"
       style="fill:#008080" />
    <path
       d="m 273.36,503.55 c -5.5117,-1.8984 -10.965,-4 -16.188,-6.2383 l -6.9219,16.082 c 5.625,2.4141 11.48,4.6641 17.395,6.6953 z"
       id="path65"
       style="fill:#008080" />
    <path
       d="m 599.54,326.29 -17.211,-3.1758 c -1.0508,5.6719 -2.3203,11.375 -3.7695,16.941 l 16.922,4.4258 c 1.5625,-5.9688 2.9297,-12.102 4.0586,-18.191 z"
       id="path67"
       style="fill:#008080" />
    <path
       d="m 590.09,362.32 -16.547,-5.6719 c -1.8711,5.4531 -3.9648,10.895 -6.2305,16.188 l 16.09,6.8867 c 2.4375,-5.6953 4.6836,-11.551 6.6875,-17.402 z"
       id="path69"
       style="fill:#008080" />
    <path
       d="m 603.57,270.62 c -0.21875,-6.168 -0.67188,-12.418 -1.3477,-18.586 l -17.402,1.9062 c 0.64062,5.7383 1.0586,11.566 1.2617,17.309 z"
       id="path71"
       style="fill:#008080" />
    <path
       d="m 567.27,187.05 c 2.2734,5.3203 4.375,10.762 6.2305,16.195 l 16.555,-5.6953 c -1.9961,-5.8203 -4.2539,-11.672 -6.7109,-17.387 z"
       id="path73"
       style="fill:#008080" />
    <path
       d="m 603.58,289.25 -17.5,-0.64062 c -0.21094,5.7852 -0.62891,11.609 -1.25,17.316 l 17.395,1.8984 c 0.64844,-6.1328 1.1289,-12.379 1.3555,-18.574 z"
       id="path75"
       style="fill:#008080" />
    <path
       d="m 578.52,219.84 c 1.4688,5.6016 2.7461,11.289 3.7812,16.93 l 17.211,-3.1836 c -1.1211,-6.0547 -2.4844,-12.172 -4.0586,-18.191 z"
       id="path77"
       style="fill:#008080" />
    <path
       d="m 376.5,45.219 1.9414,-17.395 c -6.2656,-0.69922 -12.66,-1.1719 -18.988,-1.3906 l -0.62891,17.5 c 5.8984,0.19141 11.84,0.62891 17.676,1.2852 z"
       id="path79"
       style="fill:#008080" />
    <path
       d="m 411.31,51.781 4.5156,-16.906 c -6.125,-1.6367 -12.383,-3.0625 -18.551,-4.2266 l -3.2539,17.195 c 5.7461,1.0859 11.566,2.418 17.289,3.9375 z"
       id="path81"
       style="fill:#008080" />
    <path
       d="m 323.39,45.238 c 5.7656,-0.64844 11.727,-1.0938 17.691,-1.3203 l -0.67188,-17.5 c -6.3945,0.24609 -12.773,0.71875 -18.961,1.4102 z"
       id="path83"
       style="fill:#008080" />
    <path
       d="m 444.72,63.5 7,-16.031 c -5.793,-2.5391 -11.75,-4.8906 -17.719,-7 l -5.793,16.512 c 5.5742,1.9688 11.121,4.1562 16.512,6.5195 z"
       id="path85"
       style="fill:#008080" />
    <path
       d="m 248.17,47.512 7,16.031 c 5.3477,-2.3555 10.895,-4.543 16.484,-6.5 l -5.8086,-16.512 c -5.9688,2.1094 -11.926,4.4609 -17.676,6.9805 z"
       id="path87"
       style="fill:#008080" />
    <path
       d="m 288.6,51.809 c 5.6719,-1.5234 11.48,-2.8516 17.273,-3.9453 l -3.2539,-17.195 c -6.2227,1.1797 -12.461,2.625 -18.559,4.2344 z"
       id="path89"
       style="fill:#008080" />
    <path
       d="m 96.434,270.31 17.5,0.64844 c 0.21094,-5.7852 0.64844,-11.629 1.2852,-17.379 l -17.395,-1.9258 c -0.69922,6.1523 -1.1641,12.438 -1.3906,18.656 z"
       id="path91"
       style="fill:#008080" />
    <path
       d="m 100.43,326.16 c 1.1367,6.125 2.5039,12.25 4.0586,18.242 l 16.93,-4.4258 c -1.4531,-5.5391 -2.7227,-11.262 -3.7812,-16.992 z"
       id="path93"
       style="fill:#008080" />
    <path
       d="m 100.57,233.16 17.195,3.2188 c 1.0781,-5.7227 2.3633,-11.426 3.832,-16.984 l -16.922,-4.4805 c -1.5781,5.9727 -2.9609,12.105 -4.1055,18.246 z"
       id="path95"
       style="fill:#008080" />
    <path
       d="m 116.9,179.57 c -2.457,5.6953 -4.7344,11.566 -6.7734,17.449 l 16.547,5.7227 c 1.8906,-5.4766 4.0078,-10.938 6.293,-16.23 z"
       id="path97"
       style="fill:#008080" />
    <path
       d="m 132.71,372.89 c -2.2852,-5.3125 -4.375,-10.77 -6.2461,-16.238 l -16.562,5.6719 c 2.0117,5.8711 4.2695,11.75 6.7305,17.457 z"
       id="path99"
       style="fill:#008080" />
    <path
       d="m 97.738,307.65 17.395,-1.8984 c -0.62109,-5.7305 -1.0312,-11.566 -1.2344,-17.352 l -17.5,0.59375 c 0.21875,6.2227 0.66406,12.496 1.3398,18.656 z"
       id="path101"
       style="fill:#008080" />
  </g>
</g>
</svg>
