<?xml version="1.0" encoding="UTF-8" standalone="no"?>
<svg
   width="100"
   height="130"
   version="1.1"
   viewBox="0 0 100 130"
   id="svg1504"
   sodipodi:docname="Json.svg"
   xml:space="preserve"
   xmlns:inkscape="http://www.inkscape.org/namespaces/inkscape"
   xmlns:sodipodi="http://sodipodi.sourceforge.net/DTD/sodipodi-0.dtd"
   xmlns="http://www.w3.org/2000/svg"
   xmlns:svg="http://www.w3.org/2000/svg"><defs
     id="defs1508" /><sodipodi:namedview
     id="namedview1506"
     pagecolor="#ffffff"
     bordercolor="#000000"
     borderopacity="0.25"
     inkscape:showpageshadow="2"
     inkscape:pageopacity="0.0"
     inkscape:pagecheckerboard="0"
     inkscape:deskcolor="#d1d1d1"
     inkscape:document-units="px"
     showgrid="false" /><g
     id="g1502"
     fill="#7FFFD4"
     transform="matrix(0.23090833,0,0,0.23214286,-30.821113,0)"><path
       d="m 274.87,376.37 h 14 v 14 h -14 z"
       id="path1488" /><path
       d="m 308.7,312.67 h 12.133 v 11.668 H 308.7 Z"
       id="path1490" /><path
       d="m 309.17,391.3 c 0.54688,2.6172 0.54688,5.3164 0,7.9336 -0.94531,1.3555 -2.5625,2.0742 -4.2031,1.8672 h -4.1992 v 9.332 h 5.3672 c 2.6836,0.0508 5.3359,-0.59375 7.6992,-1.8672 2.1055,-0.97266 3.8281,-2.6133 4.9023,-4.668 1.3438,-4.6133 1.8203,-9.4414 1.3984,-14.23 v -52.969 h -10.965 z"
       id="path1492" /><path
       d="m 368.67,361.43 c -4.1641,-1.8945 -8.5547,-3.2266 -13.066,-3.9688 l -6.5352,-1.8672 v 0.004 c -1.1562,-0.68359 -2.1172,-1.6484 -2.8008,-2.8008 -0.12891,-0.85156 -0.12891,-1.7188 0,-2.5664 -0.004,-1.4102 0.40234,-2.7891 1.168,-3.9688 0.97266,-1.0977 2.2891,-1.8398 3.7344,-2.0977 1.0742,-0.22656 2.1875,-0.22656 3.2656,0 5.3672,0 8.3984,2.1016 9.1016,6.7656 h 12.133 c -0.28906,-3.0117 -1.332,-5.8984 -3.0352,-8.3984 -4.5664,-5.0156 -11.211,-7.6055 -17.965,-7 -5.1953,-0.28516 -10.324,1.2852 -14.469,4.4297 -3.4648,2.6719 -5.457,6.8281 -5.3672,11.203 0,7.9336 5.3672,13.301 15.867,15.633 l 8.6328,2.1016 v -0.004 c 2.3789,0.53125 4.4648,1.9531 5.8359,3.9688 0.34375,1.1406 0.34375,2.3594 0,3.5 0.0664,3.3789 -2.2891,6.3242 -5.6016,7 h -3.9648 c -2.5469,0.12109 -5.0664,-0.52734 -7.2344,-1.8672 -1.8047,-1.6445 -2.9609,-3.8789 -3.2656,-6.3008 h -11.434 c 1.6328,11.199 9.1016,16.801 21.934,16.801 5.6016,0.375 11.152,-1.2812 15.633,-4.668 3.8906,-3.0078 6.1406,-7.6797 6.0664,-12.598 0.21875,-5.8125 -3.2344,-11.137 -8.6328,-13.301 z"
       id="path1494" /><path
       d="m 420,336.7 c -3.1289,-1.1836 -6.457,-1.7383 -9.8008,-1.6328 -7.5469,-0.46875 -14.852,2.75 -19.598,8.6328 -4.3242,5.5078 -6.5547,12.371 -6.3008,19.367 -0.12891,5.3164 0.98828,10.594 3.2656,15.398 2.5156,5.4375 7.0273,9.6992 12.602,11.902 3.2148,1.1445 6.6172,1.6992 10.031,1.6328 4.4727,0.13281 8.8984,-0.91016 12.836,-3.0352 5.4961,-3.043 9.5352,-8.1719 11.199,-14.23 0.95312,-3.6562 1.4219,-7.4219 1.3984,-11.199 0.17578,-5.2227 -0.86328,-10.414 -3.0312,-15.168 -2.5664,-5.3516 -7.0703,-9.5195 -12.602,-11.668 z m 0,41.535 c -2.3711,2.8008 -5.9023,4.3477 -9.5664,4.1992 -2.6406,0.0312 -5.2305,-0.69922 -7.4688,-2.1016 -2.9297,-2.0273 -4.9414,-5.1289 -5.5977,-8.6328 -0.76172,-2.7344 -1.1562,-5.5586 -1.168,-8.3984 -0.50391,-3.4766 0.0742,-7.0234 1.6602,-10.156 1.5898,-3.1328 4.1055,-5.6992 7.207,-7.3438 1.6875,-0.76562 3.5156,-1.1641 5.3672,-1.168 3.9414,-0.0937 7.6836,1.7344 10.031,4.9023 2.6992,4.1523 4.0078,9.0547 3.7344,14 0.22266,5.2578 -1.3398,10.438 -4.4336,14.699 z"
       id="path1496" /><path
       d="m 483.46,336.7 c -2.5703,-1.1211 -5.3555,-1.6797 -8.1641,-1.6328 -6.4805,-0.26953 -12.613,2.9336 -16.102,8.3984 V 336.7 h -11.199 v 53.668 h 11.434 v -26.832 c -0.24219,-4.0391 0.3125,-8.082 1.6328,-11.902 0.85156,-2.0938 2.3125,-3.8867 4.1992,-5.1328 1.9648,-1.207 4.2266,-1.8555 6.5352,-1.8672 1.9922,-0.0664 3.9531,0.50391 5.5977,1.6328 1.4844,0.77344 2.582,2.125 3.0352,3.7344 0.48047,3.0156 0.48047,6.0859 0,9.1016 v 31.266 h 11.434 v -34.301 c 0.20703,-4.3789 -0.50781,-8.75 -2.1016,-12.832 -1.3281,-2.8086 -3.543,-5.1016 -6.3008,-6.5352 z"
       id="path1498" /><path
       d="m 531.54,234.73 h -1.4023 v -59.5 c -1.3438,-13.293 -7.1875,-25.723 -16.566,-35.234 L 390.1417,16.566 C 380.63,7.1871 368.2007,1.343 354.9077,0 h -151.43 c -18.562,0 -36.367,7.375 -49.496,20.504 -13.129,13.125 -20.504,30.93 -20.504,49.496 v 420 c 0,18.566 7.375,36.371 20.504,49.496 13.129,13.129 30.934,20.504 49.496,20.504 h 256.67 c 18.566,0 36.371,-7.375 49.496,-20.504 13.129,-13.125 20.504,-30.93 20.504,-49.496 v -27.766 h 1.4023 c 9.2812,0 18.184,-3.6875 24.746,-10.254 6.5664,-6.5625 10.254,-15.465 10.254,-24.746 v -157.5 c 0,-9.2852 -3.6875,-18.188 -10.254,-24.75 -6.5625,-6.5625 -15.465,-10.25 -24.746,-10.25 z M 366.81,14.69 c 2.7656,0.89844 5.3633,2.2383 7.6992,3.9688 2.8086,1.5977 5.3984,3.5586 7.6992,5.832 l 122.5,122.73 c 2.7305,2.6484 5.0156,5.7227 6.7656,9.0977 1.3594,1.8672 2.457,3.9062 3.2695,6.0664 h -130.2 c -4.5156,-0.10156 -8.8281,-1.875 -12.105,-4.9805 -3.2773,-3.1055 -5.2852,-7.3164 -5.6289,-11.816 z m 151.66,475.3 c 0,15.473 -6.1445,30.309 -17.082,41.246 -10.941,10.941 -25.777,17.086 -41.25,17.086 h -256.67 c -15.469,0 -30.305,-6.1445 -41.246,-17.086 -10.941,-10.938 -17.086,-25.773 -17.086,-41.246 v -420 c 0,-15.473 6.1445,-30.309 17.086,-41.246 10.941,-10.941 25.777,-17.086 41.246,-17.086 h 151.43 v 133.93 c 0,7.8594 3.125,15.395 8.6797,20.953 5.5586,5.5547 13.098,8.6797 20.957,8.6797 h 133.93 v 59.5 h -286.3 c -9.2852,0 -18.188,3.6875 -24.75,10.25 -6.562,6.5625 -10.25,15.465 -10.25,24.75 v 157.5 c 0,9.2812 3.6875,18.184 10.25,24.746 6.5625,6.5664 15.465,10.254 24.75,10.254 h 286.3 z m 36.398,-62.766 h 0.004 c 0,6.1875 -2.457,12.121 -6.8359,16.5 -4.375,4.375 -10.309,6.832 -16.496,6.832 h -299.37 c -6.1914,0 -12.125,-2.457 -16.5,-6.832 -4.375,-4.3789 -6.8359,-10.312 -6.8359,-16.5 v -157.5 c 0,-6.1875 2.4609,-12.125 6.8359,-16.5 4.375,-4.375 10.309,-6.8359 16.5,-6.8359 h 299.37 c 6.1875,0 12.121,2.4609 16.496,6.8359 4.3789,4.375 6.8359,10.312 6.8359,16.5 z"
       id="path1500" /></g></svg>
